/* XPM */
static char * gba32_xpm[] = {
"32 32 471 2",
"  	c None",
". 	c #A9B9D8",
"+ 	c #6987BB",
"@ 	c #B7C6E1",
"# 	c #4F6FA6",
"$ 	c #3F619B",
"% 	c #5F81BE",
"& 	c #6F8EC1",
"* 	c #C2CFE5",
"= 	c #6582B7",
"- 	c #41516A",
"; 	c #3F4E62",
"> 	c #3D5F99",
", 	c #4F75B6",
"' 	c #8AA2CB",
") 	c #C0CDE4",
"! 	c #5B78AD",
"~ 	c #465874",
"{ 	c #737D99",
"] 	c #66729A",
"^ 	c #303D4F",
"/ 	c #2C4670",
"( 	c #3C64AA",
"_ 	c #5C80B8",
": 	c #6885BD",
"< 	c #435776",
"[ 	c #727D8F",
"} 	c #8193C6",
"| 	c #667CBB",
"1 	c #3C588D",
"2 	c #27364C",
"3 	c #243D63",
"4 	c #335D9E",
"5 	c #4F75B1",
"6 	c #93AACA",
"7 	c #6B86B9",
"8 	c #42587A",
"9 	c #818D9A",
"0 	c #99ADD0",
"a 	c #968FAD",
"b 	c #747DA6",
"c 	c #3664AE",
"d 	c #2457A1",
"e 	c #1B3856",
"f 	c #1A2C44",
"g 	c #284D87",
"h 	c #2B579C",
"i 	c #5D7CAD",
"j 	c #7A95C7",
"k 	c #40577D",
"l 	c #727D88",
"m 	c #ACC1D8",
"n 	c #96B2D7",
"o 	c #AD9093",
"p 	c #AC8B77",
"q 	c #5C7796",
"r 	c #2860A8",
"s 	c #0E519B",
"t 	c #143F6B",
"u 	c #1B2A3D",
"v 	c #1F3E70",
"w 	c #2B5698",
"x 	c #5575A7",
"y 	c #7892C2",
"z 	c #3E5782",
"A 	c #7E8990",
"B 	c #BCCFDC",
"C 	c #ABCBE3",
"D 	c #8EB6D8",
"E 	c #6F97BF",
"F 	c #889697",
"G 	c #B6B353",
"H 	c #6A917B",
"I 	c #2365A1",
"J 	c #0F56A6",
"K 	c #0F4580",
"L 	c #182C42",
"M 	c #1A3357",
"N 	c #34568F",
"O 	c #48699B",
"P 	c #89A2CF",
"Q 	c #476497",
"R 	c #4E5A65",
"S 	c #A5B5BA",
"T 	c #C5E1EE",
"U 	c #A5CDE4",
"V 	c #87B6D4",
"W 	c #557C9B",
"X 	c #568EBE",
"Y 	c #739C8F",
"Z 	c #7DA870",
"` 	c #52907D",
" .	c #2268A0",
"..	c #0F57A5",
"+.	c #0C4B8F",
"@.	c #182E48",
"#.	c #234071",
"$.	c #284880",
"%.	c #9AA6BB",
"&.	c #748EB8",
"*.	c #4E70AC",
"=.	c #587AB7",
"-.	c #4D6282",
";.	c #454E52",
">.	c #819AA2",
",.	c #9DD0E3",
"'.	c #87C3DD",
").	c #649FBE",
"!.	c #4B7C9C",
"~.	c #4784B4",
"{.	c #4B8BB0",
"].	c #439587",
"^.	c #24878A",
"/.	c #1F62AB",
"(.	c #165294",
"_.	c #21416D",
":.	c #1C3F7A",
"<.	c #364D77",
"[.	c #B9BDC5",
"}.	c #7F92B4",
"|.	c #5A79AB",
"1.	c #3D609C",
"2.	c #5276B7",
"3.	c #5479B7",
"4.	c #445878",
"5.	c #5A6369",
"6.	c #6A909B",
"7.	c #82C6DB",
"8.	c #73BBD9",
"9.	c #5FA2C4",
"0.	c #457D9F",
"a.	c #498CBC",
"b.	c #3F86B6",
"c.	c #357CB3",
"d.	c #2B64A1",
"e.	c #264873",
"f.	c #1E427D",
"g.	c #1A396E",
"h.	c #9198A5",
"i.	c #D0D3D5",
"j.	c #254377",
"k.	c #1B3D76",
"l.	c #4466A0",
"m.	c #3D63A1",
"n.	c #4368A9",
"o.	c #4971B5",
"p.	c #3D5A89",
"q.	c #4B545E",
"r.	c #4F6D77",
"s.	c #71BAD0",
"t.	c #6DBDD9",
"u.	c #61AFD3",
"v.	c #59A4CD",
"w.	c #4E95C7",
"x.	c #4382B5",
"y.	c #2C4C73",
"z.	c #21447D",
"A.	c #203E6F",
"B.	c #7E8899",
"C.	c #5079B5",
"D.	c #254883",
"E.	c #041C52",
"F.	c #153870",
"G.	c #41659F",
"H.	c #3C619F",
"I.	c #3961A4",
"J.	c #416AB1",
"K.	c #375484",
"L.	c #3B4552",
"M.	c #4B6D76",
"N.	c #69B4C9",
"O.	c #69BCD9",
"P.	c #62B1D4",
"Q.	c #579EC6",
"R.	c #3A6383",
"S.	c #25477E",
"T.	c #133770",
"U.	c #6D7B92",
"V.	c #C3C5C9",
"W.	c #88A2CC",
"X.	c #426CB2",
"Y.	c #3564AD",
"Z.	c #29569D",
"`.	c #0B2A64",
" +	c #031B51",
".+	c #0F3169",
"++	c #355A93",
"@+	c #345996",
"#+	c #294D8F",
"$+	c #3863AA",
"%+	c #315694",
"&+	c #2E3A4B",
"*+	c #304249",
"=+	c #61A8BB",
"-+	c #6BBED7",
";+	c #43708C",
">+	c #284A7F",
",+	c #1A3B71",
"'+	c #5B6C87",
")+	c #CBCDCE",
"!+	c #8EA8CF",
"~+	c #6283BB",
"{+	c #2B5294",
"]+	c #2C5497",
"^+	c #2B5599",
"/+	c #325FA6",
"(+	c #234E94",
"_+	c #0B2D67",
":+	c #0B2D65",
"<+	c #31538E",
"[+	c #233E79",
"}+	c #214384",
"|+	c #325CA3",
"1+	c #2B4E88",
"2+	c #1E2E43",
"3+	c #2A3F45",
"4+	c #45717F",
"5+	c #2B4C7C",
"6+	c #193D75",
"7+	c #4A5E80",
"8+	c #B5B9BE",
"9+	c #86A0CC",
"0+	c #6F8EC4",
"a+	c #4D73B6",
"b+	c #305799",
"c+	c #546D96",
"d+	c #627591",
"e+	c #677D9D",
"f+	c #466CA7",
"g+	c #3966AD",
"h+	c #28559A",
"i+	c #0D2F6A",
"j+	c #041B51",
"k+	c #072A62",
"l+	c #284D88",
"m+	c #243F7B",
"n+	c #193775",
"o+	c #285397",
"p+	c #275093",
"q+	c #1F3453",
"r+	c #27416C",
"s+	c #1A3D77",
"t+	c #3A5279",
"u+	c #B7B9BD",
"v+	c #829ECE",
"w+	c #6183C2",
"x+	c #587DBE",
"y+	c #3B63A7",
"z+	c #566B89",
"A+	c #626D76",
"B+	c #6C7D93",
"C+	c #3C65A4",
"D+	c #3C68AF",
"E+	c #2F5CA3",
"F+	c #26467A",
"G+	c #11326A",
"H+	c #04245B",
"I+	c #062961",
"J+	c #254985",
"K+	c #284681",
"L+	c #163573",
"M+	c #244D91",
"N+	c #254E8F",
"O+	c #1D427D",
"P+	c #2E4974",
"Q+	c #99A0AA",
"R+	c #98AED5",
"S+	c #6385C3",
"T+	c #6183C3",
"U+	c #5E81C2",
"V+	c #5A7EC0",
"W+	c #5379BC",
"X+	c #466DB2",
"Y+	c #345A98",
"Z+	c #335A99",
"`+	c #305184",
" @	c #345DA3",
".@	c #305FA8",
"+@	c #2F5CA5",
"@@	c #2F5490",
"#@	c #265091",
"$@	c #0F3571",
"%@	c #05265D",
"&@	c #05275F",
"*@	c #193D77",
"=@	c #2E508D",
"-@	c #193673",
";@	c #1A3D79",
">@	c #244070",
",@	c #A1A6AE",
"'@	c #738FBF",
")@	c #6284C3",
"!@	c #5B7FC0",
"~@	c #547ABD",
"{@	c #4E75BA",
"]@	c #436CB3",
"^@	c #3C66AE",
"/@	c #3763AC",
"(@	c #3360AB",
"_@	c #2F5EA6",
":@	c #2E5BA3",
"<@	c #2C58A1",
"[@	c #29569C",
"}@	c #214B8F",
"|@	c #103571",
"1@	c #193D76",
"2@	c #1E3A73",
"3@	c #213562",
"4@	c #7A8597",
"5@	c #D8D9DB",
"6@	c #5F7DAE",
"7@	c #3F65A4",
"8@	c #5F81C1",
"9@	c #5F82C1",
"0@	c #5275B6",
"a@	c #4B70B1",
"b@	c #456DB3",
"c@	c #3E67AF",
"d@	c #3763AB",
"e@	c #3361AB",
"f@	c #234881",
"g@	c #3C567D",
"h@	c #264E8C",
"i@	c #244F93",
"j@	c #265298",
"k@	c #214C8E",
"l@	c #0E336E",
"m@	c #06265C",
"n@	c #193770",
"o@	c #A9ADB3",
"p@	c #D3D4D7",
"q@	c #5170A1",
"r@	c #395A8A",
"s@	c #4267A8",
"t@	c #5578B8",
"u@	c #4E6DA1",
"v@	c #5675A8",
"w@	c #4D73B4",
"x@	c #476EB3",
"y@	c #3E67AE",
"z@	c #3863AC",
"A@	c #3462AC",
"B@	c #294C83",
"C@	c #45576B",
"D@	c #2F558F",
"E@	c #38598D",
"F@	c #295290",
"G@	c #275296",
"H@	c #1C4687",
"I@	c #082A61",
"J@	c #0E2E66",
"K@	c #B8BCC1",
"L@	c #7C8993",
"M@	c #3F5D84",
"N@	c #3E64A6",
"O@	c #4B6DA8",
"P@	c #4A6CA6",
"Q@	c #4367A7",
"R@	c #4066AA",
"S@	c #3E68AE",
"T@	c #3866B0",
"U@	c #3463AE",
"V@	c #2F5DA6",
"W@	c #29559B",
"X@	c #2E5592",
"Y@	c #4B5C74",
"Z@	c #41608E",
"`@	c #2E599D",
" #	c #234C8B",
".#	c #295B78",
"+#	c #123766",
"@#	c #3A4C68",
"##	c #B2B4B8",
"$#	c #A6ACAE",
"%#	c #6C7A83",
"&#	c #375888",
"*#	c #4169AB",
"=#	c #4569A8",
"-#	c #516B90",
";#	c #456AA9",
">#	c #416BB3",
",#	c #3563AE",
"'#	c #315FA8",
")#	c #2E5CA4",
"!#	c #29549B",
"~#	c #254B87",
"{#	c #244E90",
"]#	c #193E77",
"^#	c #0F3469",
"/#	c #11305F",
"(#	c #616978",
"_#	c #C1C2C5",
":#	c #B3B7BB",
"<#	c #576672",
"[#	c #365683",
"}#	c #3F67AB",
"|#	c #456CAD",
"1#	c #456EB5",
"2#	c #3F69B3",
"3#	c #3865B0",
"4#	c #305FA9",
"5#	c #2E5CA5",
"6#	c #2C59A1",
"7#	c #295399",
"8#	c #1D4482",
"9#	c #11356E",
"0#	c #0A2D65",
"a#	c #1F3D6C",
"b#	c #B6B7BB",
"c#	c #8F969A",
"d#	c #50616D",
"e#	c #34588D",
"f#	c #406AAF",
"g#	c #456EB6",
"h#	c #3E69B3",
"i#	c #3765B0",
"j#	c #3260AB",
"k#	c #305EA7",
"l#	c #285295",
"m#	c #1A3F7C",
"n#	c #0D3069",
"o#	c #082C65",
"p#	c #40577A",
"q#	c #8E96A2",
"r#	c #CECFD1",
"s#	c #848C90",
"t#	c #4E5F6D",
"u#	c #36588C",
"v#	c #3E68AF",
"w#	c #3D69B2",
"x#	c #3766B0",
"y#	c #305DA4",
"z#	c #264C89",
"A#	c #233D69",
"B#	c #0E2E61",
"C#	c #254271",
"D#	c #6F7C92",
"E#	c #BFC0C3",
"F#	c #7E878A",
"G#	c #4D5F6F",
"H#	c #345D9A",
"I#	c #3B67B0",
"J#	c #325DA3",
"K#	c #1A407A",
"L#	c #213C64",
"M#	c #243F66",
"N#	c #3B5379",
"O#	c #959CA8",
"P#	c #C5C7CB",
"Q#	c #94999D",
"R#	c #485B6F",
"S#	c #305593",
"T#	c #183470",
"U#	c #113671",
"V#	c #0B2D64",
"W#	c #274271",
"X#	c #7A869A",
"Y#	c #B7B9BC",
"Z#	c #8B949E",
"`#	c #3B5D94",
" $	c #112C65",
".$	c #0C316B",
"+$	c #3F567B",
"@$	c #8D95A3",
"#$	c #CBCDCF",
"$$	c #90A0BB",
"%$	c #3B517B",
"&$	c #717F97",
"*$	c #BEBFC2",
"=$	c #C1C3C9",
"-$	c #CACCCE",
"                                                                ",
"                                        . +                     ",
"                                      @ # $ % &                 ",
"                                    * = - ; > , '               ",
"                                  ) ! ~ { ] ^ / ( _             ",
"                                  : < [ } | 1 2 3 4 5 6         ",
"                                7 8 9 0 a b c d e f g h i       ",
"                              j k l m n o p q r s t u v w x     ",
"                            y z A B C D E F G H I J K L M N O   ",
"                          P Q R S T U V W X Y Z `  ...+.@.#.$.%.",
"                        &.*.=.-.;.>.,.'.).!.~.{.].^./.(._.:.<.[.",
"                      }.|.1.2.3.4.5.6.7.8.9.0.a.b.c.d.e.f.g.h.i.",
"                      j.k.l.m.n.o.p.q.r.s.t.u.v.w.x.y.z.A.B.    ",
"                    C.D.E.F.G.H.I.J.K.L.M.N.O.P.Q.R.S.T.U.V.    ",
"                W.X.Y.Z.`. +.+++@+#+$+%+&+*+=+-+;+>+,+'+)+      ",
"            !+~+{+]+^+/+(+_+ +:+<+[+}+|+1+2+3+4+5+6+7+8+        ",
"        9+0+a+b+c+d+e+f+g+h+i+j+k+l+m+n+o+p+q+r+s+t+u+          ",
"    ) v+w+x+a+y+z+A+B+C+D+E+F+G+H+I+J+K+L+M+N+O+P+Q+            ",
"  R+S+T+U+V+W+X+Y+Z+`+ @.@+@@@#@$@%@&@*@=@-@;@>@,@              ",
"  '@S+)@U+!@~@{@]@^@/@(@_@:@<@[@}@|@H+H+1@2@3@4@5@              ",
"  6@7@8@9@0@a@a+b@c@d@e@f@g@h@i@j@k@l@j+m@n@o@p@                ",
"  q@r@s@t@u@v@w@x@y@z@A@B@C@D@E@F@G@H@l@I@J@K@                  ",
"    L@M@N@O@P@Q@R@S@T@U@V@W@X@Y@Z@`@ #.#+#@###                  ",
"    $#%#&#*#=#-#;#>#T@,#'#)#!#~##@{#]#^#/#(#_#                  ",
"      :#<#[#}#|#1#2#3#,#4#5#6#7#8#9#0#a#4@b#                    ",
"        c#d#e#f#g#h#i#,#j#k#l#m#n#o#p#q#r#                      ",
"          s#t#u#v#w#x#i#y#z#A#B#C#D#E#                          ",
"            F#G#H#I#x#J#K#L#M#N#O#P#                            ",
"              Q#R#S#T#U#V#W#X#Y#                                ",
"                Z#`# $.$+$@$#$                                  ",
"                  $$%$&$*$                                      ",
"                    =$-$                                        "};
